<svg id="Group_79" data-name="Group 79" xmlns="http://www.w3.org/2000/svg" width="24" height="24" viewBox="0 0 24 24">
  <path id="Path_10738" data-name="Path 10738" d="M12,24A12,12,0,1,1,24,12,12.035,12.035,0,0,1,12,24ZM12,2A10,10,0,1,0,22,12,10.029,10.029,0,0,0,12,2Z" fill="#fff"/>
  <path id="Path_10739" data-name="Path 10739" d="M11,16a.908.908,0,0,1-.7-.3l-3-3a.99.99,0,0,1,1.4-1.4l3,3a.967.967,0,0,1,0,1.4A.908.908,0,0,1,11,16Z" fill="#fff"/>
  <path id="Path_10740" data-name="Path 10740" d="M11,16a.908.908,0,0,1-.7-.3.967.967,0,0,1,0-1.4l6-6a.99.99,0,0,1,1.4,1.4l-6,6a.908.908,0,0,1-.7.3Z" fill="#fff"/>
</svg>
