<svg id="Linkedin" xmlns="http://www.w3.org/2000/svg" width="50" height="48" viewBox="0 0 50 48">
  <g id="invisible_box" data-name="invisible box" transform="translate(0 0)">
    <rect id="Rectangle_56" data-name="Rectangle 56" width="50" height="48" transform="translate(0 0)" fill="rgba(0,0,0,0)"/>
    <rect id="Rectangle_57" data-name="Rectangle 57" width="50" height="48" transform="translate(0 0)" fill="rgba(0,0,0,0)"/>
  </g>
  <g id="icons_Q2" data-name="icons Q2" transform="translate(4.428 4.536)">
    <path id="Path_10719" data-name="Path 10719" d="M42.04,4.1H7.084a3.086,3.086,0,0,0-2.175.787A2.731,2.731,0,0,0,4,6.908V39.923a2.731,2.731,0,0,0,.909,2.02,3.086,3.086,0,0,0,2.175.787H42.04a2.9,2.9,0,0,0,2.981-2.808V6.908A2.9,2.9,0,0,0,42.04,4.1ZM16.234,37.019H10.066v-18.4h6.169ZM13.15,16.106a3.491,3.491,0,0,1-3.5-3.389,3.4,3.4,0,0,1,3.5-3.292,3.4,3.4,0,0,1,3.5,3.292,3.491,3.491,0,0,1-3.5,3.389ZM38.955,37.019H32.89v-9c0-2.13,0-4.841-3.187-4.841s-3.6,2.324-3.6,4.744v9.1H20.038v-18.4H25.8V21.14h.1a6.47,6.47,0,0,1,5.757-3c6.169,0,7.3,3.776,7.3,8.811Z" transform="translate(-4 -4.098)"/>
  </g>
</svg>
